<svg aria-labelledby="figaro_svg_alt" role="img" viewBox="0 0 681.8 94.5" xmlns="http://www.w3.org/2000/svg"><path d="m491.1 76.4-22-53.4h-29.9s-16.5 41.4-21.8 53.5c-.5 1.2-1.7 1.9-3 1.9h-5.5v14.3H441V78.4h-4.3c-1.4 0-2.3-1.4-1.8-2.6l2-4.7h26.2l1.9 4.7c.5 1.2.3 2.6-1 2.6h-5.6v14.3h40.8V78.4h-5.1c-1.3 0-2.5-.8-3-2Zm-49.4-16.9 8.3-20.2 8.4 20.2h-16.7ZM582.6 77l-9.2-13.3s14-2.9 14-17.5S575.7 23 554.8 23h-52.3v14.3h7.3c1 0 1.9.8 1.9 1.9v37.3c0 1-.8 1.9-1.9 1.9H505v14.3h43.2V78.4h-7.3c-1 0-1.9-.8-1.9-1.9v-9.4h8.5l17.6 25.6h27.8V78.4h-7.7c-1 0-2-.5-2.6-1.4Zm-33-22.3H539V37.3h10.6s12.8-.3 12.8 8.5c0 0 .9 8.9-12.8 8.9ZM0 92.7V78.3h7.3c1 0 1.9-.8 1.9-1.9V39.2c0-1-.8-1.9-1.9-1.9H0V23h45.7v14.3h-7.3c-1 0-1.9.8-1.9 1.9v39.1l17.9.1c1.1 0 1.9-.8 1.9-1.9V63.8h17.9v28.9H0ZM155.3 41.8V23H81v14.3h7.3c1 0 1.9.8 1.9 1.9v37.2c0 1-.8 1.9-1.9 1.9H81v14.4h74.3V73.8h-15.2v2.7c0 1.1-.9 1.9-1.9 1.9l-20.6-.1V64.1h22.5V51h-22.5V37.3l20.6-.1c1.1 0 1.9.8 1.9 1.9v2.7h15.2ZM193.6 23c.7.5 1.4 1.1 2.2 1.6 17.8 13.2 18 22.5 18 22.5v18.4c-5.6-1.7-9.2-3.6-12.9-5.5v16.5c0 1-.8 1.9-1.9 1.9h-7.3v14.3H237V78.4h-6.9c-1 0-1.9-.8-1.9-1.9V64.2h19.7V51.1h-19.8V37.3l17.9-.1c1.1 0 1.9.8 1.9 1.9v2.7h17.9V23h-72.2Z M638.4 21.2c-32.2 0-43.9 19.9-43.9 35.9 0 21.2 16.1 37.4 43.6 37.4 24.5 0 43.7-12.3 43.7-36.5s-18.4-36.8-43.4-36.8Zm.5 58.3c-7.4 0-15.3-3.9-15.3-23.7 0-12.2 5.3-19.8 14.4-19.8 8.6 0 14.9 5 14.9 21.1 0 17.6-6.5 22.4-14 22.4ZM272.2 78.4v14.3h45.7V78.4h-7.2c-1 0-1.9-.8-1.9-1.9V39.2c0-1 .8-1.9 1.9-1.9h7.3V23h-45.7v14.3h7.3c1 0 1.9.8 1.9 1.9v37.3c0 1-.8 1.9-1.9 1.9h-7.4ZM411.2 60.9v-6H370v12.4h14.9s.3 13.5-15.9 13.5c-8.8 0-17.9-5.1-17.9-22.8s12.9-22.5 20.8-22.5c8.7 0 15.1 3.4 18.7 8.8h18.1V23.2h-18v5.7s-9.6-7.4-26.6-7.4c-24.3 0-41.9 13.5-41.9 36.6 0 21.3 15.8 36.1 45.2 36.1 43.8 0 43.8-33.3 43.8-33.3Z" fill="#163860"></path><path class="plume" d="M228.3 70.2c2.2.4 8.3 3.6 10.9 5.7 7.2 5.8 14.8 14.7 14.8 14.7l3.3 2.1s-9.3-11.1-15.2-17c-4.2-4.1-11.2-11.2-11.2-11.2l-.4-.4h-2.3v6.1h.1ZM196.8 24.6c-.8-.6-1.5-1.1-2.2-1.6-16.1-12.2-21.4-18.7-22.8-23 0 0-4.9 17.7 8.2 31.7 0 0-3.2-.7-6.2-1.9 0 0 5.4 13.5 20.3 20.7 0 0-3.9.1-7.2-.3 0 0 3.5 5.3 14 10.8 3.7 1.9 8.3 3.8 13.9 5.5V47.1s-.2-9.3-18-22.5Z" fill="#0d6fef"></path></svg>