<svg xmlns="http://www.w3.org/2000/svg" id="logo-lepoint" viewBox="0 0 275 59"><defs><style>.cls-1{fill:#000}</style></defs><path class="cls-1" d="M188.52 14.61a7.31 7.31 0 1 0-7.31-7.3 7.31 7.31 0 0 0 7.31 7.3M275 48.31l-1.09.22a16.49 16.49 0 0 1-3 .22c-3.37 0-4.56-1.73-4.56-6.6V26.77H275v-8.88h-8.6V5.39l-12.62 4.24v8.26h-7.42v4.42h6.35a.93.93 0 0 1 .86.86v19.89c0 8.82 2.2 14.69 13.84 14.69a42.27 42.27 0 0 0 6.22-.54L275 57v-8.7ZM155 17c-12.38 0-20.73 8.2-20.73 20.4s8.34 20.33 20.73 20.33 20.74-8.17 20.74-20.33S167.39 17 155 17m0 31.06c-7.09 0-7.79-8.23-7.79-10.66s.7-10.73 7.79-10.73 7.79 8.29 7.79 10.73-.7 10.66-7.79 10.66M196.19 52.45a.92.92 0 0 1-.86-.86v-33.7h-17.66v4.41h3.84a.92.92 0 0 1 .86.86v28.43a.93.93 0 0 1-.86.87h-3.84v4.41H200v-4.41h-3.84ZM244.22 51.59V32.65c0-7.56-3.56-15.64-13.86-15.64-5.4 0-9.47 2.17-12.09 6.44l-.36.59v-5.3a.93.93 0 0 0-.83-.85h-15.89v4.42H205a.92.92 0 0 1 .86.83v33.73H219v-18c0-7.88 2.39-11 7-11a4.5 4.5 0 0 1 3.65 1.76c1.1 1.4 1.63 3.85 1.63 7.48v19.77h17.62v-4.42H245a.92.92 0 0 1-.82-.87M58.07 17c-12.22 0-19.41 9-19.41 20.34 0 12.2 8.46 20.4 21.06 20.4a34.56 34.56 0 0 0 13.5-2.84l.23-.1v-9.49l-.54.3a26 26 0 0 1-11.16 2.89c-5.67 0-9.38-2.71-10.14-6.64v-.23h24.8v-2.79C76.4 25 69.3 17 58.07 17m-6.7 16.32v-.21c.28-2.63 1.81-7.31 6.75-7.31 4.72 0 6.09 3.77 6.39 6.42a.88.88 0 0 1-.86 1.1ZM111.3 5.94H91.46v4.42h3.84a.93.93 0 0 1 .87.86v40.37a.92.92 0 0 1-.87.86h-3.84v4.42H114v-4.42h-3.84a.93.93 0 0 1-.87-.86V39.32h4.39c11.84 0 19.06-7 19.06-16.58 0-10-6.8-16.8-21.46-16.8m.8 23.63h-2.79V15.62h2.79c4.74 0 7.5 2.59 7.5 6.91 0 4.48-2.69 7-7.5 7M33.06 45.77a.91.91 0 0 1-.85.86H17.89V12.47a.91.91 0 0 1 .85-.85h3.8V7.25H0v4.36h3.8a.91.91 0 0 1 .85.84v39.22a.91.91 0 0 1-.85.83H0v4.37h37.43V42h-4.36v3.8Z"/></svg>