<svg viewBox="0 0 100 30" xmlns="http://www.w3.org/2000/svg"><path d="M35.0045,8.95511 C35.0045,16.9152 27.5041,19.8007 26.0041,20.1987 L26.0041,29.8504 L22.0039,29.8504 L22.0039,0 L25.304,0 C30.1043,0 35.0045,2.18903 35.0045,8.95511 Z M30.5043,8.95511 C30.5043,4.47755 28.0042,3.38304 26.0041,3.38304 L26.0041,16.4177 C26.5041,16.3182 30.5043,14.3282 30.5043,8.95511 Z M0,7.95972 L0,29.85 L9.00038,29.85 L9.00038,26.8649 L4.00017,26.8649 L4.00017,7.95972 L0,7.95972 Z M14.1964,29.9501 C14.7964,29.9501 14.9964,29.8506 14.9964,29.8506 L15.0964,29.8506 L15.0964,27.0645 L14.5964,27.0645 C13.2963,27.0645 11.9963,26.0695 11.7963,23.582 C13.4963,23.4825 17.9965,21.6915 17.9965,17.4129 C17.9965,13.8309 15.0964,12.3384 13.1963,12.3384 C11.1962,12.3384 7.99609,13.6319 7.99609,21.194 C7.99609,28.4576 11.5962,29.9501 14.1964,29.9501 Z M14.4964,17.1144 C14.4964,19.403 12.6963,20.796 11.4962,20.8955 C11.4962,16.0199 12.2963,14.9254 13.2963,14.9254 C13.9963,14.9254 14.4964,15.6219 14.4964,17.1144 Z M40.5003,29.8503 L44.0005,29.8503 L44.0005,15.5222 C44.0005,11.1441 41.7004,9.85059 38.5002,9.85059 C36.6002,9.85059 35.5001,10.4476 35.5001,10.4476 L35.5001,13.4326 C35.7829,13.3701 36.0261,13.2978 36.2609,13.228 C36.7735,13.0755 37.2457,12.9351 38.0002,12.9351 C39.1003,12.9351 40.0003,13.2336 40.0003,14.4276 L40.0003,14.9251 C38.5002,15.1241 33,17.2137 33,23.3827 C33,27.1638 35.9001,30.4473 39.0003,29.9498 L40.5003,28.5568 L40.5003,29.8503 Z M37.0002,23.3827 C37.0002,19.7012 39.5003,18.0097 40.0003,17.9102 L40.0003,25.6713 C40.0003,26.0693 39.3003,26.8653 38.7002,26.8653 C38.0002,26.8653 37.0002,25.7708 37.0002,23.3827 Z M53.5042,13.4337 C51.5041,13.4337 50.0041,15.0257 50.0041,17.4138 L50.0041,29.8514 L46.0039,29.8514 L46.0039,9.95117 L50.0041,9.95117 L50.0041,11.4437 C50.5041,10.9462 51.5041,9.95117 53.5042,9.95117 L54.0042,9.95117 L54.0042,13.4337 L53.5042,13.4337 Z M54.998,3.97925 L54.998,7.9593 L58.9982,7.9593 L58.9982,3.97925 L54.998,3.97925 Z M58.9982,9.94932 L58.9982,29.8496 L54.998,29.8496 L54.998,9.94932 L58.9982,9.94932 Z M70.0031,24.0793 C70.0031,27.4623 67.003,29.9498 63.5029,29.9498 C62.0028,29.9498 60.8028,29.7508 59.8027,29.3528 L61.3028,26.3678 C61.9028,26.6663 62.5028,26.7658 63.2029,26.7658 C64.5029,26.7658 65.603,25.8703 65.603,24.6763 C65.603,23.2832 65.0029,22.2882 63.5029,20.5967 C60.9028,18.1092 60.1027,16.8157 60.1027,14.7261 C60.1027,11.9401 62.6028,9.85059 65.903,9.85059 C67.403,9.85059 68.3031,9.95009 69.1031,10.2486 L67.6031,13.2336 C67.103,13.0346 66.703,12.9351 66.003,12.9351 C65.103,12.9351 64.3029,13.6316 64.3029,14.4276 C64.3029,15.2236 64.6029,15.9202 66.303,17.5122 C68.9031,19.7012 70.0031,21.2932 70.0031,24.0793 Z M71.002,3.97925 L71.002,7.9593 L75.0021,7.9593 L75.0021,3.97925 L71.002,3.97925 Z M71.002,9.94932 L75.0021,9.94932 L75.0021,29.8496 L71.002,29.8496 L71.002,9.94932 Z M87.0024,15.4227 C87.0024,20.3977 82.2022,22.6862 80.3021,22.8852 C80.5021,25.7708 81.9022,26.8653 83.3023,26.8653 L84.0023,26.8653 L84.0023,29.8503 C84.0023,29.8503 83.6023,29.9498 82.9022,29.9498 C79.9021,29.9498 76.002,28.3578 76.002,19.9002 C76.002,11.1441 79.6021,9.85059 82.0022,9.85059 C84.2023,9.85059 87.0024,11.2436 87.0024,15.4227 Z M79.9021,19.9002 C81.2022,19.8007 83.1022,18.1092 83.1022,15.4227 C83.1022,13.6316 82.6022,12.9351 81.8022,12.9351 C80.8022,12.9351 79.9021,13.5321 79.9021,19.9002 Z M100.001,16.7165 C100.001,11.4429 97.1004,9.55238 93.0002,9.95039 L92.0002,10.9454 L92.0002,9.95039 L88,9.95039 L88,29.8506 L92.0002,29.8506 L92.0002,15.4229 C92.0002,14.0299 93.0002,12.9354 94.0003,12.9354 C95.0003,12.9354 96.0003,14.0299 96.0003,15.4229 L96.0003,29.8506 L100.001,29.8506 L100.001,16.7165 Z" fill-rule="evenodd"></path></svg>